<svg id="Layer_1" xmlns="http://www.w3.org/2000/svg" xmlns:xlink="http://www.w3.org/1999/xlink" viewBox="0 0 379 64"><style>.st0{clip-path:url(#SVGID_2_);fill:#e51937;stroke:#231f20;stroke-miterlimit:10}.st1,.st2{fill:#fff}.st2{clip-path:url(#SVGID_4_)}.st3,.st4{clip-path:url(#SVGID_6_);fill:#fff}.st4{clip-path:url(#SVGID_8_)}.st5,.st6{clip-path:url(#SVGID_10_);fill:#fff}.st6{clip-path:url(#SVGID_12_)}.st7{fill:#231f20}</style><defs><path id="SVGID_1_" d="M316.9 32.1c0 15.9 12.9 28.8 28.8 28.8s28.8-12.9 28.8-28.8-12.9-28.8-28.8-28.8-28.8 12.8-28.8 28.8"/></defs><clipPath id="SVGID_2_"><use xlink:href="#SVGID_1_" overflow="visible"/></clipPath><path class="st0" d="M315 1.5h59.9v59.9l-60 1.7z"/><use xlink:href="#SVGID_1_" overflow="visible" fill="none" stroke="#e51937" stroke-width="2" stroke-miterlimit="10"/><path class="st1" d="M355.2 41.7s.1-9.6-2.1-20.1c0 0 2 0 5.2.5 0 0 1.1 4.2 1.9 14.6h3.8v4.5l-8.8.5zm9.9-.9s-.1-9.9-2.3-17.8l3.2.5s1.3 3.2 2 12.5l3.1-.1v3.4l-6 1.5zm-42.9 0s-.8-8.2.6-16.4c0 0 8.4-2.9 11.8-.7 0 0 4.6 4.3-1.5 8.3 0 0 4.2 3 2.5 6.7 0 0-.7 4-5.8 3.2l-7.6-1.1zm6-11.1c1.3 0 1.5-1.7 1.5-1.7.4-1.7-1.4-1.3-1.4-1.3l-1.9.2-.1 2.7h1.9v.1zm-.2 7.7c1.5.1 1.8-1 1.8-1 .2-1.8-1.9-1.8-1.9-1.8l-1.7-.1-.1 2.9h1.9zm7.4 4.4s3.9-13.7 6.3-20.3l6.3.1s2.7 5.5 6.2 20l-5 .1-1.1-2.6h-6.3l-.7 2.9-5.7-.2zm11.3-7.4l-1.8-6.3-1.9 6.3h3.7z"/><defs><path id="SVGID_3_" d="M2.5 32.4c0 16 13 29 29 29s29-13 29-29-13-29-29-29-29 13-29 29"/></defs><clipPath id="SVGID_4_"><use xlink:href="#SVGID_3_" overflow="visible"/></clipPath><path class="st2" d="M2.5 3.4h57.9v57.9H2.5z"/><use xlink:href="#SVGID_3_" overflow="visible" fill="none" stroke="#231f20" stroke-width="2" stroke-miterlimit="10"/><defs><path id="SVGID_5_" d="M65 32.4c0 16 13 29 29 29s29-13 29-29-13-29-29-29c-16.1 0-29 13-29 29"/></defs><use xlink:href="#SVGID_5_" overflow="visible" fill="#fff"/><clipPath id="SVGID_6_"><use xlink:href="#SVGID_5_" overflow="visible"/></clipPath><path class="st3" d="M65 3.4h57.9v57.9H65z"/><use xlink:href="#SVGID_5_" overflow="visible" fill="none" stroke="#231f20" stroke-width="2" stroke-miterlimit="10"/><defs><path id="SVGID_7_" d="M127.8 32.6c0 16 13 29 29 29s29-13 29-29-13-29-29-29c-16 .1-29 13.1-29 29"/></defs><clipPath id="SVGID_8_"><use xlink:href="#SVGID_7_" overflow="visible"/></clipPath><path class="st4" d="M127.8 3.7h57.9v57.9h-57.9z"/><use xlink:href="#SVGID_7_" overflow="visible" fill="none" stroke="#231f20" stroke-width="2" stroke-miterlimit="10"/><defs><path id="SVGID_9_" d="M190.6 32.4c0 16 13 29 29 29s29-13 29-29-13-29-29-29-29 13-29 29"/></defs><clipPath id="SVGID_10_"><use xlink:href="#SVGID_9_" overflow="visible"/></clipPath><path class="st5" d="M190.6 3.4h57.9v57.9h-57.9z"/><use xlink:href="#SVGID_9_" overflow="visible" fill="none" stroke="#231f20" stroke-width="2" stroke-miterlimit="10"/><defs><path id="SVGID_11_" d="M252.9 32.4c0 16 13 29 29 29s29-13 29-29-13-29-29-29-29 13-29 29"/></defs><clipPath id="SVGID_12_"><use xlink:href="#SVGID_11_" overflow="visible"/></clipPath><path class="st6" d="M252.9 3.4h57.9v57.9h-57.9z"/><use xlink:href="#SVGID_11_" overflow="visible" fill="none" stroke="#231f20" stroke-width="2" stroke-miterlimit="10"/><path class="st7" d="M18.9 49.5v-32h15.4c9.2 0 13.6 4.2 13.6 10.8 0 6.9-4.1 11.2-13.3 11.2h-5.3v10H18.9zm14.8-17.4c2.4 0 4.2-1 4.2-3.7 0-3-3.4-3.4-5.6-3.4h-3v7.1h4.4zm77.4 1.3c0 10.9-7.3 17-16.8 17-10 0-16.8-6.2-16.8-17.1 0-10 6.8-16.6 16.8-16.6 11.4.1 16.8 8.3 16.8 16.7m-23.1 0c0 4.1 1.2 9.2 6.3 9.2 4.5 0 6.3-3.9 6.3-9.2 0-4.4-1.8-9-6.4-8.8-4.8 0-6.2 4.8-6.2 8.8m77.4 3.8h.1l3.6-19.8h10.1l-8 32h-10.3l-3.7-18.6-3.7 18.6h-10.3l-8-32h10.2l3.6 19.8h.1l3.8-19.8h8.7zm40.9 12.2v-32h26.1v7.5h-15.6v4.5H230v7.5h-13.2v5H233v7.5zm72.2-11.1v11.2H268v-32h15.1c10.7 0 14.2 2.9 14.2 9.1 0 3.7-1.6 6.8-5.4 7.8 3.4 1.2 5.4 2 5.4 8.5 0 4.2-.1 5.6 1.1 5.6v1h-10.6c-.3-.7-.5-2.8-.5-5.6 0-4.2-.7-5.6-5.6-5.6h-3.2zm0-7.1h4.1c3.2 0 5-.8 5-3 0-2.3-1.8-3.3-4.2-3.3h-4.9v6.3z"/></svg>